<?xml version="1.0" standalone="no"?><!DOCTYPE svg PUBLIC "-//W3C//DTD SVG 1.1//EN" "http://www.w3.org/Graphics/SVG/1.1/DTD/svg11.dtd"><svg t="1672646079896" class="icon" viewBox="0 0 1024 1024" version="1.1" xmlns="http://www.w3.org/2000/svg" p-id="1349" xmlns:xlink="http://www.w3.org/1999/xlink" width="200" height="200"><path d="M92.16 505.856c0 18.432-14.336 32.768-32.768 32.768-18.432 0-32.768-14.336-32.768-32.768 0-18.432 14.336-32.768 32.768-32.768 17.408 0 32.768 14.336 32.768 32.768z" fill="#FFE08A" p-id="1350"></path><path d="M58.368 553.984C31.744 553.984 10.24 532.48 10.24 505.856s21.504-48.128 48.128-48.128 48.128 21.504 48.128 48.128c1.024 26.624-21.504 48.128-48.128 48.128z m0-65.536c-10.24 0-17.408 8.192-17.408 17.408s8.192 17.408 17.408 17.408 17.408-8.192 17.408-17.408-7.168-17.408-17.408-17.408z" fill="#330867" p-id="1351"></path><path d="M960.512 505.856m-32.768 0a32.768 32.768 0 1 0 65.536 0 32.768 32.768 0 1 0-65.536 0Z" fill="#66C1FF" p-id="1352"></path><path d="M960.512 553.984c-26.624 0-48.128-21.504-48.128-48.128s21.504-48.128 48.128-48.128 48.128 21.504 48.128 48.128-21.504 48.128-48.128 48.128z m0-65.536c-10.24 0-17.408 8.192-17.408 17.408s8.192 17.408 17.408 17.408 17.408-8.192 17.408-17.408-8.192-17.408-17.408-17.408z" fill="#330867" p-id="1353"></path><path d="M799.744 308.224c-69.632-55.296-172.032-43.008-227.328 26.624l-57.344 72.704-36.864-46.08c-66.56-84.992-190.464-99.328-275.456-32.768-74.752 58.368-87.04 166.912-28.672 240.64l282.624 259.072 40.96 48.128c9.216 10.24 24.576 10.24 33.792 0l40.96-48.128 261.12-232.448c70.656-87.04 55.296-217.088-33.792-287.744z" fill="#FC6B79" p-id="1354"></path><path d="M453.632 807.936L211.968 529.408c-46.08-76.8-24.576-175.104 48.128-225.28-18.432 7.168-35.84 16.384-52.224 29.696-72.704 57.344-84.992 163.84-27.648 236.544l275.456 244.736 16.384 18.432-18.432-25.6z" fill="#DD365E" p-id="1355"></path><path d="M515.072 901.12c-11.264 0-21.504-5.12-28.672-13.312l-39.936-47.104-283.648-260.096c-30.72-38.912-45.056-88.064-38.912-137.216 6.144-49.152 30.72-94.208 69.632-124.928 44.032-34.816 99.328-50.176 155.648-44.032 56.32 6.144 106.496 34.816 141.312 78.848l24.576 30.72 46.08-57.344c29.696-36.864 71.68-60.416 117.76-66.56 47.104-5.12 93.184 7.168 130.048 36.864 95.232 75.776 111.616 215.04 36.864 310.272l-2.048 2.048L583.68 840.704l-39.936 47.104c-7.168 8.192-17.408 13.312-28.672 13.312zM186.368 560.128l282.624 260.096 40.96 48.128c2.048 2.048 4.096 2.048 5.12 2.048 1.024 0 3.072 0 5.12-2.048L563.2 819.2l260.096-231.424c64.512-81.92 50.176-201.728-32.768-266.24-30.72-24.576-68.608-34.816-107.52-30.72s-73.728 23.552-97.28 54.272l-69.632 88.064-48.128-61.44c-29.696-37.888-72.704-61.44-120.832-67.584-48.128-6.144-95.232 8.192-133.12 37.888-32.768 25.6-53.248 62.464-58.368 104.448-5.12 40.96 6.144 80.896 30.72 113.664z" fill="#330867" p-id="1356"></path><path d="M238.592 504.832l58.368 102.4 59.392-97.28z" fill="#FFE08A" p-id="1357"></path><path d="M539.648 497.664l78.848-83.968 68.608 83.968z" fill="#FFE08A" p-id="1358"></path><path d="M303.104 622.592c-7.168 0-13.312-3.072-18.432-9.216l-1.024-1.024-55.296-89.088-1.024-1.024h-133.12v-30.72h133.12c11.264 0 21.504 6.144 27.648 15.36l48.128 77.824 44.032-77.824c5.12-9.216 15.36-15.36 25.6-15.36h158.72c1.024 0 3.072-1.024 4.096-2.048l68.608-81.92c6.144-6.144 14.336-8.192 21.504-7.168 8.192 1.024 14.336 5.12 18.432 12.288l55.296 76.8c1.024 1.024 3.072 2.048 4.096 2.048h224.256v30.72h-225.28c-11.264 0-22.528-5.12-29.696-15.36l-52.224-72.704-62.464 74.752c-7.168 8.192-16.384 13.312-27.648 13.312H372.736l-49.152 87.04c-3.072 7.168-10.24 12.288-17.408 13.312h-3.072z" fill="#330867" p-id="1359"></path></svg>